<svg version="1.0" preserveAspectRatio="xMidYMid meet" viewBox="19.5 129.749996886 335.25 102.74999753400002" zoomAndPan="magnify" xmlns:xlink="http://www.w3.org/1999/xlink" xmlns="http://www.w3.org/2000/svg" style="max-height: 500px" width="335.25" height="102.74999753400002"><defs><clipPath id="73620ee6d5"><path clip-rule="nonzero" d="M 24.566406 141.015625 L 38 141.015625 L 38 229 L 24.566406 229 Z M 24.566406 141.015625"/></clipPath><clipPath id="dbca84cae8"><path clip-rule="nonzero" d="M 33.371094 137.292969 L 76.429688 137.292969 L 76.429688 164.5 L 33.371094 164.5 Z M 33.371094 137.292969"/></clipPath><clipPath id="890433f1cf"><path clip-rule="nonzero" d="M 100.894531 172.328125 L 167.433594 172.328125 L 167.433594 227 L 100.894531 227 Z M 100.894531 172.328125"/></clipPath><clipPath id="5fe8c1319b"><path clip-rule="nonzero" d="M 134.394531 154.066406 L 176 178.863281 L 142.5625 234.976562 L 100.949219 210.175781 Z M 134.394531 154.066406"/></clipPath><clipPath id="e0e2ec9bfe"><path clip-rule="nonzero" d="M 134.394531 154.066406 L 176 178.863281 L 142.5625 234.976562 L 100.949219 210.175781 Z M 134.394531 154.066406"/></clipPath><clipPath id="5c6baee12b"><path clip-rule="nonzero" d="M 134.394531 154.066406 L 176 178.863281 L 135.421875 246.957031 L 93.8125 222.15625 Z M 134.394531 154.066406"/></clipPath><clipPath id="44976fa465"><path clip-rule="nonzero" d="M 184.070312 191 L 239.847656 191 L 239.847656 209.511719 L 184.070312 209.511719 Z M 184.070312 191"/></clipPath><clipPath id="bdc0149eb9"><path clip-rule="nonzero" d="M 193.355469 227.039062 L 181.414062 197.03125 L 227.78125 178.578125 L 239.722656 208.585938 Z M 193.355469 227.039062"/></clipPath><clipPath id="488f5f87cb"><path clip-rule="nonzero" d="M 195.871094 233.363281 L 181.488281 197.21875 L 240.8125 173.609375 L 255.195312 209.75 Z M 195.871094 233.363281"/></clipPath><clipPath id="4344bbf687"><path clip-rule="nonzero" d="M 195.871094 233.363281 L 181.488281 197.21875 L 240.8125 173.609375 L 255.195312 209.75 Z M 195.871094 233.363281"/></clipPath><clipPath id="b6927366e8"><path clip-rule="nonzero" d="M 310.304688 162 L 351 162 L 351 226 L 310.304688 226 Z M 310.304688 162"/></clipPath><clipPath id="39e029cc18"><path clip-rule="nonzero" d="M 314.363281 157.671875 L 355.058594 163.429688 L 345.605469 230.285156 L 304.910156 224.527344 Z M 314.363281 157.671875"/></clipPath><clipPath id="587da99f03"><path clip-rule="nonzero" d="M 314.363281 157.671875 L 355.058594 163.429688 L 345.605469 230.285156 L 304.910156 224.527344 Z M 314.363281 157.671875"/></clipPath><clipPath id="1fdbb7223c"><path clip-rule="nonzero" d="M 314.363281 157.671875 L 355.058594 163.429688 L 345.605469 230.285156 L 304.910156 224.527344 Z M 314.363281 157.671875"/></clipPath><clipPath id="5e569fc0c8"><path clip-rule="nonzero" d="M 256 172.328125 L 289 172.328125 L 289 214.40625 L 256 214.40625 Z M 256 172.328125"/></clipPath><clipPath id="3696dcbbfc"><path clip-rule="nonzero" d="M 288.898438 210.640625 L 256.054688 214.117188 L 251.734375 173.246094 L 284.578125 169.769531 Z M 288.898438 210.640625"/></clipPath><clipPath id="880e6115f8"><path clip-rule="nonzero" d="M 258.132812 236.234375 L 296.8125 232.140625 L 290.171875 169.375 L 251.492188 173.464844 Z M 258.132812 236.234375"/></clipPath><clipPath id="1b7c62b635"><path clip-rule="nonzero" d="M 258.132812 236.234375 L 296.8125 232.140625 L 290.171875 169.375 L 251.492188 173.464844 Z M 258.132812 236.234375"/></clipPath></defs><g clip-path="url(#73620ee6d5)"><path fill-rule="evenodd" fill-opacity="1" d="M 32.191406 228.332031 C 31.78125 228.339844 31.375 228.390625 30.96875 228.359375 C 30.570312 228.332031 30.175781 228.257812 29.792969 228.152344 C 29.421875 228.046875 29.054688 227.898438 28.707031 227.722656 C 28.355469 227.546875 28.027344 227.339844 27.71875 227.097656 C 27.414062 226.859375 27.125 226.59375 26.871094 226.300781 C 26.613281 226.007812 26.382812 225.6875 26.1875 225.351562 C 25.988281 225.007812 25.820312 224.644531 25.691406 224.265625 C 25.433594 223.492188 25.441406 223.484375 25.394531 222.671875 C 23.46875 189.050781 25.832031 165.351562 32.871094 142.210938 C 32.875 142.1875 32.953125 141.9375 32.953125 141.9375 C 32.984375 141.871094 33.003906 141.796875 33.046875 141.738281 C 33.070312 141.710938 33.183594 141.554688 33.40625 141.515625 C 33.441406 141.507812 33.640625 141.472656 33.839844 141.613281 C 33.867188 141.632812 34.03125 141.753906 34.0625 141.972656 C 34.070312 142.046875 34.058594 142.121094 34.050781 142.195312 C 34.007812 142.53125 33.035156 148.035156 32.394531 155.46875 C 30.628906 175.925781 32.542969 196.558594 37.449219 221.558594 C 37.535156 221.992188 37.480469 222.683594 37.472656 222.78125 C 37.445312 223.179688 37.367188 223.574219 37.261719 223.953125 C 37.152344 224.328125 37.007812 224.695312 36.828125 225.042969 C 36.652344 225.390625 36.441406 225.722656 36.203125 226.03125 C 35.96875 226.335938 35.699219 226.625 35.40625 226.878906 C 35.117188 227.136719 34.792969 227.367188 34.457031 227.5625 C 33.929688 227.871094 33.46875 228.027344 33.378906 228.054688 C 33.378906 228.054688 32.191406 228.332031 32.191406 228.332031 Z M 32.191406 228.332031" fill="#3775d2"/></g><path fill-rule="evenodd" fill-opacity="1" d="M 72.082031 222.691406 C 71.941406 222.898438 71.816406 223.117188 71.667969 223.324219 C 71.597656 223.421875 71.230469 223.917969 70.679688 224.417969 C 69.882812 225.144531 69.046875 225.546875 68.890625 225.617188 C 68.464844 225.824219 68.015625 225.988281 67.554688 226.105469 C 67.09375 226.226562 66.621094 226.300781 66.148438 226.332031 C 65.972656 226.34375 65.054688 226.40625 64.003906 226.160156 C 63.277344 225.992188 62.714844 225.738281 62.605469 225.6875 C 62.011719 225.410156 62.019531 225.394531 61.480469 225.023438 C 52.054688 218.464844 37.8125 206.882812 35.457031 193.121094 C 33.515625 181.789062 40.289062 172.589844 51.253906 167.707031 C 58.292969 164.578125 66.65625 163.441406 73.753906 164.808594 C 73.789062 164.816406 73.984375 164.855469 74.132812 165.039062 C 74.164062 165.078125 74.363281 165.328125 74.183594 165.640625 C 74.074219 165.828125 73.882812 165.890625 73.847656 165.902344 C 73.707031 165.953125 73.707031 165.941406 73.554688 165.933594 C 61.867188 165.539062 48.15625 172.496094 44.355469 181.746094 C 42.863281 185.378906 42.054688 191.316406 49.082031 198.828125 C 54.996094 205.152344 63.972656 209.902344 69.285156 212.472656 C 69.703125 212.675781 69.695312 212.6875 70.066406 212.960938 C 70.160156 213.03125 70.660156 213.398438 71.15625 213.953125 C 71.882812 214.75 72.28125 215.585938 72.359375 215.742188 C 72.5625 216.171875 72.726562 216.621094 72.847656 217.082031 C 72.964844 217.539062 73.042969 218.015625 73.074219 218.484375 C 73.085938 218.65625 73.144531 219.582031 72.902344 220.628906 C 72.734375 221.355469 72.476562 221.914062 72.429688 222.019531 C 72.425781 222.019531 72.082031 222.691406 72.082031 222.691406 Z M 72.082031 222.691406" fill="#3775d2"/><g clip-path="url(#dbca84cae8)"><path fill-rule="evenodd" fill-opacity="1" d="M 58.238281 145.359375 C 60.191406 143.648438 64.335938 140.074219 66.265625 138.824219 C 66.683594 138.554688 67.75 137.800781 68.640625 137.855469 C 69.449219 137.910156 70.171875 138.246094 70.363281 138.585938 C 70.652344 139.09375 70.96875 139.667969 70.789062 140.386719 C 70.75 140.527344 70.480469 141.039062 69.886719 141.625 C 68.296875 143.199219 65.179688 146 62.925781 148.03125 C 66.367188 151.566406 74.4375 159.902344 76.234375 162.183594 C 76.601562 162.648438 75.675781 164.253906 75.164062 163.957031 C 72.59375 162.464844 62.777344 155.363281 58.339844 152.132812 C 56.398438 153.832031 54.539062 155.425781 54.539062 155.425781 L 50.792969 158.84375 C 50.792969 158.84375 51.632812 161.957031 51.628906 162.890625 C 51.625 163.476562 51.332031 164.613281 50.765625 164.421875 C 49.847656 164.113281 47.191406 161.792969 46.121094 161.019531 C 45.53125 160.597656 44.996094 160.082031 44.335938 159.78125 C 43.121094 159.230469 39.605469 158.289062 38.820312 157.722656 C 38.394531 157.417969 39.101562 156.480469 39.617188 156.386719 C 40.71875 156.1875 45.421875 156.515625 45.421875 156.515625 C 45.421875 156.515625 44.933594 154.421875 45.214844 153.675781 C 45.492188 152.925781 46.542969 152.171875 47.289062 152.109375 C 48.035156 152.050781 49.0625 153.9375 49.695312 153.3125 C 50.320312 152.6875 52.070312 150.964844 53.722656 149.382812 C 48.539062 146.925781 36.625 141.234375 34.03125 139.679688 C 33.445312 139.328125 35.410156 138.359375 36.097656 138.515625 C 40.015625 139.421875 57.527344 145.117188 57.527344 145.117188 Z M 58.238281 145.359375" fill="#3775d2"/></g><path fill-rule="nonzero" fill-opacity="1" d="M 116.472656 181.257812 L 125.628906 181.257812 L 107.128906 198.304688 L 126.851562 217.066406 L 117.558594 217.066406 L 100.9375 201.195312 L 100.9375 217.066406 L 93.351562 217.066406 L 93.351562 157.035156 L 100.9375 157.035156 L 100.9375 195.429688 Z M 116.472656 181.257812" fill="#3775d2"/><path fill-rule="nonzero" fill-opacity="1" d="M 147.226562 218.105469 C 143.527344 218.105469 140.242188 217.28125 137.378906 215.628906 C 134.511719 213.96875 132.265625 211.722656 130.636719 208.886719 C 129.015625 206.050781 128.207031 202.84375 128.207031 199.269531 C 128.207031 195.691406 129.015625 192.464844 130.636719 189.589844 C 132.265625 186.707031 134.511719 184.421875 137.378906 182.738281 C 140.242188 181.050781 143.527344 180.199219 147.226562 180.199219 C 150.882812 180.199219 154.128906 181.050781 156.964844 182.738281 C 159.808594 184.421875 162.027344 186.707031 163.617188 189.589844 C 165.214844 192.464844 166.015625 195.691406 166.015625 199.269531 C 166.015625 202.84375 165.214844 206.050781 163.617188 208.886719 C 162.027344 211.722656 159.808594 213.96875 156.964844 215.628906 C 154.128906 217.28125 150.882812 218.105469 147.226562 218.105469 Z M 147.226562 211.605469 C 149.550781 211.605469 151.570312 211.070312 153.296875 210 C 155.027344 208.921875 156.375 207.445312 157.332031 205.566406 C 158.300781 203.695312 158.785156 201.578125 158.785156 199.222656 C 158.785156 196.867188 158.300781 194.75 157.332031 192.859375 C 156.375 190.964844 155.027344 189.464844 153.296875 188.367188 C 151.570312 187.257812 149.550781 186.699219 147.226562 186.699219 C 144.871094 186.699219 142.816406 187.257812 141.0625 188.367188 C 139.320312 189.464844 137.960938 190.964844 136.980469 192.859375 C 136.011719 194.75 135.527344 196.867188 135.527344 199.222656 C 135.527344 201.578125 136.011719 203.695312 136.980469 205.566406 C 137.960938 207.445312 139.320312 208.921875 141.0625 210 C 142.816406 211.070312 144.871094 211.605469 147.226562 211.605469 Z M 147.226562 211.605469" fill="#3775d2"/><path fill-rule="nonzero" fill-opacity="1" d="M 192.9375 180.199219 C 195.289062 180.199219 197.578125 180.699219 199.800781 181.683594 C 202.035156 182.675781 203.867188 184.238281 205.304688 186.378906 C 206.742188 188.519531 207.460938 191.300781 207.460938 194.726562 L 207.460938 217.066406 L 199.785156 217.066406 L 199.785156 196.210938 C 199.785156 192.664062 198.953125 190.085938 197.292969 188.472656 C 195.640625 186.863281 193.503906 186.058594 190.886719 186.058594 C 189.175781 186.058594 187.523438 186.546875 185.933594 187.523438 C 184.351562 188.496094 183.050781 189.828125 182.035156 191.53125 C 181.011719 193.222656 180.503906 195.152344 180.503906 197.308594 L 180.503906 217.066406 L 172.921875 217.066406 L 172.921875 181.257812 L 180.503906 181.257812 L 180.503906 187.617188 C 180.769531 186.628906 181.484375 185.550781 182.644531 184.390625 C 183.808594 183.226562 185.289062 182.242188 187.09375 181.425781 C 188.898438 180.609375 190.84375 180.199219 192.9375 180.199219 Z M 192.9375 180.199219" fill="#3775d2"/><path fill-rule="nonzero" fill-opacity="1" d="M 212.875 181.257812 L 219.894531 181.257812 L 219.894531 166.546875 L 227.445312 166.546875 L 227.445312 181.257812 L 236.652344 181.257812 L 236.652344 187.753906 L 227.445312 187.753906 L 227.445312 205.460938 C 227.445312 207.5625 227.8125 209.105469 228.546875 210.09375 C 229.289062 211.082031 230.289062 211.574219 231.542969 211.574219 C 232.644531 211.574219 233.5 211.375 234.113281 210.964844 C 234.722656 210.558594 235.089844 210.277344 235.214844 210.125 L 238.210938 215.71875 C 238.035156 215.863281 237.570312 216.140625 236.820312 216.546875 C 236.0625 216.953125 235.089844 217.3125 233.898438 217.632812 C 232.707031 217.945312 231.308594 218.105469 229.707031 218.105469 C 226.914062 218.105469 224.578125 217.257812 222.707031 215.566406 C 220.828125 213.867188 219.894531 211.164062 219.894531 207.464844 L 219.894531 187.753906 L 212.875 187.753906 Z M 212.875 181.257812" fill="#3775d2"/><path fill-rule="nonzero" fill-opacity="1" d="M 250.773438 217.066406 L 243.234375 217.066406 L 243.234375 181.257812 L 250.773438 181.257812 L 250.773438 187.449219 L 250.558594 187.449219 C 250.699219 186.695312 251.234375 185.75 252.164062 184.621094 C 253.101562 183.480469 254.386719 182.460938 256.019531 181.5625 C 257.644531 180.65625 259.597656 180.199219 261.859375 180.199219 C 263.519531 180.199219 264.980469 180.429688 266.246094 180.890625 C 267.507812 181.339844 268.402344 181.777344 268.921875 182.203125 L 265.835938 188.488281 C 265.425781 188.082031 264.710938 187.671875 263.695312 187.25 C 262.671875 186.832031 261.40625 186.621094 259.902344 186.621094 C 257.976562 186.621094 256.328125 187.21875 254.964844 188.410156 C 253.59375 189.605469 252.554688 191.039062 251.84375 192.707031 C 251.128906 194.382812 250.773438 195.925781 250.773438 197.339844 Z M 250.773438 217.066406" fill="#3775d2"/><path fill-rule="nonzero" fill-opacity="1" d="M 301.171875 217.066406 L 301.171875 210.09375 C 300.933594 210.820312 300.257812 211.820312 299.136719 213.105469 C 298.011719 214.382812 296.484375 215.53125 294.550781 216.5625 C 292.625 217.589844 290.347656 218.105469 287.730469 218.105469 C 284.417969 218.105469 281.414062 217.316406 278.726562 215.75 C 276.035156 214.183594 273.894531 211.980469 272.304688 209.144531 C 270.71875 206.3125 269.933594 202.992188 269.933594 199.175781 C 269.933594 195.375 270.71875 192.058594 272.304688 189.222656 C 273.894531 186.378906 276.035156 184.167969 278.726562 182.585938 C 281.414062 180.996094 284.417969 180.199219 287.730469 180.199219 C 290.320312 180.199219 292.5625 180.671875 294.457031 181.609375 C 296.363281 182.535156 297.890625 183.609375 299.046875 184.832031 C 300.195312 186.050781 300.871094 187.09375 301.078125 187.96875 L 301.078125 181.257812 L 308.585938 181.257812 L 308.585938 217.066406 Z M 277.441406 199.175781 C 277.441406 201.765625 278.007812 204.007812 279.136719 205.902344 C 280.269531 207.792969 281.742188 209.253906 283.554688 210.292969 C 285.378906 211.324219 287.320312 211.835938 289.382812 211.835938 C 291.589844 211.835938 293.570312 211.3125 295.316406 210.261719 C 297.058594 209.214844 298.4375 207.734375 299.457031 205.828125 C 300.476562 203.921875 300.988281 201.707031 300.988281 199.175781 C 300.988281 196.648438 300.476562 194.433594 299.457031 192.523438 C 298.4375 190.621094 297.058594 189.136719 295.316406 188.074219 C 293.570312 187.015625 291.589844 186.484375 289.382812 186.484375 C 287.320312 186.484375 285.378906 187.011719 283.554688 188.058594 C 281.742188 189.101562 280.269531 190.566406 279.136719 192.464844 C 278.007812 194.351562 277.441406 196.589844 277.441406 199.175781 Z M 277.441406 199.175781" fill="#3775d2"/><path fill-rule="nonzero" fill-opacity="1" d="M 318.09375 217.066406 L 318.09375 181.257812 L 325.675781 181.257812 L 325.675781 217.066406 Z M 321.976562 168.992188 C 320.605469 168.992188 319.4375 168.511719 318.460938 167.539062 C 317.480469 166.5625 316.992188 165.390625 316.992188 164.023438 C 316.992188 162.660156 317.480469 161.480469 318.460938 160.492188 C 319.4375 159.507812 320.605469 159.007812 321.976562 159.007812 C 322.871094 159.007812 323.703125 159.246094 324.46875 159.710938 C 325.242188 160.171875 325.863281 160.773438 326.332031 161.515625 C 326.800781 162.25 327.035156 163.085938 327.035156 164.023438 C 327.035156 165.390625 326.539062 166.5625 325.554688 167.539062 C 324.5625 168.511719 323.371094 168.992188 321.976562 168.992188 Z M 321.976562 168.992188" fill="#3775d2"/><path fill-rule="nonzero" fill-opacity="1" d="M 336.066406 157.035156 L 343.695312 157.035156 L 343.695312 217.066406 L 336.066406 217.066406 Z M 336.066406 157.035156" fill="#3775d2"/><g clip-path="url(#890433f1cf)"><g clip-path="url(#5fe8c1319b)"><g clip-path="url(#e0e2ec9bfe)"><g clip-path="url(#5c6baee12b)"><path fill-rule="nonzero" fill-opacity="1" d="M 100.355469 225.398438 C 101.558594 209.160156 122.578125 205.0625 135.105469 202.09375 C 150.171875 198.6875 161.441406 192.363281 165.238281 176.695312 C 165.570312 175.585938 165.808594 174.097656 165.898438 172.847656 C 170.300781 184.601562 163.382812 200.039062 151.824219 205.214844 C 137.820312 211.210938 121.875 211.164062 108.257812 218.699219 C 105.09375 220.726562 101.546875 222.851562 101.511719 226.738281" fill="#ffffff"/></g></g></g></g><g clip-path="url(#44976fa465)"><g clip-path="url(#bdc0149eb9)"><g clip-path="url(#488f5f87cb)"><g clip-path="url(#4344bbf687)"><path fill-rule="nonzero" fill-opacity="1" d="M 252.617188 204.484375 C 243.878906 214.253906 228.445312 206.601562 218.992188 202.378906 C 207.703125 197.195312 197.402344 195.726562 187.289062 203.863281 C 186.53125 204.40625 185.652344 205.238281 184.980469 205.992188 C 187.9375 196.34375 199.933594 189.878906 209.855469 192.222656 C 221.738281 195.238281 231.890625 203.054688 244.28125 204.898438 C 247.296875 205.152344 250.601562 205.527344 252.535156 203.066406" fill="#ffffff"/></g></g></g></g><g clip-path="url(#b6927366e8)"><g clip-path="url(#39e029cc18)"><g clip-path="url(#587da99f03)"><g clip-path="url(#1fdbb7223c)"><path fill-rule="nonzero" fill-opacity="1" d="M 311.097656 224.914062 C 306.714844 211.769531 321.828125 201.617188 330.65625 195.160156 C 341.335938 187.515625 348.082031 178.835938 345.917969 165.28125 C 345.820312 164.300781 345.519531 163.054688 345.179688 162.042969 C 352.480469 169.820312 352.121094 184.21875 344.769531 192.09375 C 335.769531 201.421875 323.273438 206.640625 315.085938 217.042969 C 313.277344 219.679688 311.195312 222.519531 312.441406 225.582031" fill="#ffffff"/></g></g></g></g><g clip-path="url(#5e569fc0c8)"><g clip-path="url(#3696dcbbfc)"><g clip-path="url(#880e6115f8)"><g clip-path="url(#1b7c62b635)"><path fill-rule="nonzero" fill-opacity="1" d="M 257.351562 173.296875 C 252.757812 185.441406 266.703125 195.40625 274.828125 201.722656 C 284.664062 209.203125 290.746094 217.53125 288.234375 230.128906 C 288.105469 231.042969 287.777344 232.195312 287.425781 233.128906 C 294.589844 226.09375 294.746094 212.621094 288.066406 205.03125 C 279.878906 196.03125 268.242188 190.757812 260.859375 180.777344 C 259.234375 178.257812 257.363281 175.539062 258.648438 172.710938" fill="#ffffff"/></g></g></g></g></svg>