<svg version="1.0" preserveAspectRatio="xMidYMid meet" viewBox="12.299999999999999 127.94999692920001 351.75 100.49999758800001" zoomAndPan="magnify" xmlns:xlink="http://www.w3.org/1999/xlink" xmlns="http://www.w3.org/2000/svg" style="max-height: 500px" width="351.75" height="100.49999758800001"><defs><clipPath id="caf6c3de31"><path clip-rule="nonzero" d="M 26.414062 129.230469 L 72 129.230469 L 72 158 L 26.414062 158 Z M 26.414062 129.230469"/></clipPath></defs><path fill-rule="evenodd" fill-opacity="1" d="M 24.878906 225.84375 C 24.449219 225.851562 24.011719 225.90625 23.578125 225.875 C 23.160156 225.84375 22.742188 225.769531 22.335938 225.652344 C 21.933594 225.539062 21.542969 225.386719 21.171875 225.199219 C 20.804688 225.011719 20.453125 224.789062 20.128906 224.53125 C 19.800781 224.28125 19.496094 223.996094 19.226562 223.6875 C 18.949219 223.375 18.707031 223.035156 18.5 222.675781 C 18.285156 222.3125 18.109375 221.925781 17.972656 221.523438 C 17.695312 220.699219 17.703125 220.695312 17.652344 219.828125 C 15.609375 184.089844 18.117188 158.894531 25.601562 134.296875 C 25.609375 134.273438 25.691406 134.011719 25.691406 134.007812 C 25.726562 133.941406 25.742188 133.859375 25.789062 133.796875 C 25.8125 133.769531 25.933594 133.601562 26.171875 133.558594 C 26.210938 133.554688 26.421875 133.515625 26.632812 133.664062 C 26.660156 133.6875 26.839844 133.808594 26.867188 134.046875 C 26.878906 134.125 26.859375 134.203125 26.851562 134.28125 C 26.8125 134.640625 25.777344 140.492188 25.097656 148.390625 C 23.21875 170.136719 25.253906 192.074219 30.472656 218.644531 C 30.558594 219.109375 30.503906 219.839844 30.496094 219.945312 C 30.460938 220.367188 30.382812 220.785156 30.269531 221.191406 C 30.15625 221.589844 29.996094 221.980469 29.808594 222.351562 C 29.621094 222.71875 29.402344 223.070312 29.148438 223.398438 C 28.890625 223.726562 28.609375 224.027344 28.300781 224.300781 C 27.984375 224.574219 27.648438 224.820312 27.289062 225.027344 C 26.726562 225.355469 26.238281 225.519531 26.140625 225.554688 C 26.140625 225.554688 24.878906 225.84375 24.878906 225.84375 Z M 24.878906 225.84375" fill="#ffffff"/><path fill-rule="evenodd" fill-opacity="1" d="M 67.285156 219.847656 C 67.136719 220.074219 67 220.304688 66.839844 220.519531 C 66.769531 220.625 66.382812 221.152344 65.796875 221.683594 C 64.945312 222.457031 64.058594 222.878906 63.894531 222.960938 C 63.441406 223.179688 62.957031 223.351562 62.472656 223.480469 C 61.984375 223.605469 61.480469 223.6875 60.976562 223.722656 C 60.792969 223.734375 59.8125 223.792969 58.691406 223.539062 C 57.925781 223.359375 57.328125 223.082031 57.214844 223.035156 C 56.578125 222.742188 56.585938 222.722656 56.011719 222.324219 C 45.988281 215.355469 30.859375 203.042969 28.347656 188.417969 C 26.289062 176.371094 33.484375 166.585938 45.144531 161.402344 C 52.621094 158.078125 61.515625 156.867188 69.0625 158.320312 C 69.097656 158.328125 69.308594 158.367188 69.460938 158.566406 C 69.496094 158.605469 69.710938 158.875 69.519531 159.199219 C 69.402344 159.40625 69.199219 159.472656 69.164062 159.484375 C 69.011719 159.535156 69.007812 159.523438 68.851562 159.519531 C 56.425781 159.097656 41.855469 166.492188 37.8125 176.324219 C 36.226562 180.1875 35.363281 186.496094 42.839844 194.488281 C 49.117188 201.203125 58.664062 206.257812 64.3125 208.988281 C 64.753906 209.203125 64.746094 209.21875 65.140625 209.507812 C 65.242188 209.582031 65.773438 209.972656 66.304688 210.558594 C 67.074219 211.410156 67.5 212.296875 67.574219 212.460938 C 67.792969 212.921875 67.96875 213.398438 68.09375 213.882812 C 68.226562 214.375 68.304688 214.875 68.335938 215.378906 C 68.351562 215.5625 68.414062 216.542969 68.15625 217.660156 C 67.976562 218.429688 67.707031 219.023438 67.652344 219.140625 C 67.652344 219.140625 67.285156 219.847656 67.285156 219.847656 Z M 67.285156 219.847656" fill="#ffffff"/><g clip-path="url(#caf6c3de31)"><path fill-rule="evenodd" fill-opacity="1" d="M 52.570312 137.648438 C 54.640625 135.824219 59.050781 132.027344 61.097656 130.699219 C 61.542969 130.414062 62.675781 129.609375 63.625 129.671875 C 64.488281 129.730469 65.253906 130.085938 65.460938 130.449219 C 65.765625 130.988281 66.101562 131.597656 65.90625 132.359375 C 65.867188 132.507812 65.582031 133.046875 64.949219 133.679688 C 63.261719 135.351562 59.945312 138.328125 57.550781 140.488281 C 61.210938 144.246094 69.789062 153.105469 71.699219 155.527344 C 72.085938 156.023438 71.105469 157.730469 70.558594 157.414062 C 67.828125 155.832031 57.398438 148.28125 52.675781 144.84375 C 50.613281 146.652344 48.636719 148.34375 48.636719 148.34375 L 44.652344 151.976562 C 44.652344 151.976562 45.546875 155.292969 45.542969 156.28125 C 45.539062 156.902344 45.226562 158.113281 44.625 157.910156 C 43.648438 157.578125 40.828125 155.117188 39.6875 154.292969 C 39.0625 153.847656 38.492188 153.296875 37.792969 152.976562 C 36.5 152.390625 32.761719 151.390625 31.929688 150.789062 C 31.476562 150.464844 32.226562 149.46875 32.773438 149.371094 C 33.945312 149.15625 38.945312 149.503906 38.945312 149.503906 C 38.945312 149.503906 38.425781 147.28125 38.722656 146.484375 C 39.019531 145.691406 40.136719 144.886719 40.929688 144.824219 C 41.726562 144.757812 42.816406 146.765625 43.484375 146.101562 C 44.148438 145.4375 46.011719 143.605469 47.769531 141.921875 C 42.257812 139.308594 29.59375 133.261719 26.835938 131.609375 C 26.210938 131.234375 28.304688 130.203125 29.035156 130.371094 C 33.195312 131.335938 51.8125 137.386719 51.8125 137.386719 Z M 52.570312 137.648438" fill="#ffffff"/></g><path fill-rule="nonzero" fill-opacity="1" d="M 89.574219 147.230469 L 89.574219 211.738281 L 97.730469 211.738281 L 97.730469 194.679688 L 108.0625 204.550781 C 110.105469 203.3125 112.324219 202.25 114.625 201.316406 L 104.386719 191.570312 L 124.261719 173.242188 L 114.421875 173.242188 L 97.730469 188.480469 L 97.730469 147.230469 Z M 121.136719 207.511719 C 118.605469 208.195312 116.09375 208.960938 113.628906 209.867188 L 115.585938 211.738281 L 125.574219 211.738281 Z M 121.136719 207.511719" fill="#ffffff"/><path fill-rule="nonzero" fill-opacity="1" d="M 147.46875 172.125 C 143.496094 172.125 139.976562 173.035156 136.894531 174.847656 C 133.8125 176.65625 131.394531 179.109375 129.644531 182.207031 C 127.898438 185.296875 127.027344 188.769531 127.027344 192.613281 C 127.027344 194.25 127.195312 195.8125 127.511719 197.304688 C 129.964844 196.695312 132.324219 196.152344 134.445312 195.648438 C 134.6875 195.59375 134.917969 195.53125 135.160156 195.476562 C 134.992188 194.546875 134.90625 193.578125 134.90625 192.566406 C 134.90625 190.039062 135.425781 187.757812 136.46875 185.726562 C 137.515625 183.6875 138.980469 182.078125 140.859375 180.890625 C 142.734375 179.699219 144.9375 179.101562 147.46875 179.101562 C 149.964844 179.101562 152.144531 179.699219 154 180.890625 C 155.546875 181.875 156.800781 183.152344 157.773438 184.71875 C 159.609375 182.964844 161.234375 180.976562 162.625 178.710938 C 161.296875 177.199219 159.738281 175.910156 157.949219 174.847656 C 154.898438 173.035156 151.402344 172.125 147.46875 172.125 Z M 166.238281 184.632812 C 164.671875 188.070312 162.496094 191.246094 159.839844 193.859375 C 159.691406 195.878906 159.195312 197.722656 158.347656 199.390625 C 157.3125 201.402344 155.867188 202.984375 154 204.148438 C 152.144531 205.304688 149.964844 205.878906 147.46875 205.878906 C 144.9375 205.878906 142.734375 205.304688 140.859375 204.148438 C 140.378906 203.851562 139.925781 203.523438 139.5 203.171875 C 136.710938 203.871094 133.902344 204.5 131.089844 205.125 C 132.652344 207.167969 134.585938 208.859375 136.894531 210.191406 C 139.976562 211.976562 143.496094 212.871094 147.46875 212.871094 C 151.402344 212.871094 154.898438 211.976562 157.949219 210.191406 C 160.996094 208.410156 163.378906 205.996094 165.09375 202.953125 C 166.816406 199.90625 167.679688 196.460938 167.679688 192.613281 C 167.679688 189.742188 167.199219 187.082031 166.238281 184.632812 Z M 166.238281 184.632812" fill="#ffffff"/><path fill-rule="nonzero" fill-opacity="1" d="M 196.597656 172.125 C 194.339844 172.125 192.242188 172.566406 190.308594 173.441406 C 188.378906 174.320312 186.789062 175.382812 185.535156 176.640625 C 184.28125 177.886719 183.515625 179.035156 183.238281 180.097656 L 183.238281 173.242188 L 175.085938 173.242188 L 175.085938 211.738281 L 183.238281 211.738281 L 183.238281 190.5 C 183.238281 188.1875 183.78125 186.117188 184.875 184.289062 C 185.964844 182.464844 187.363281 181.027344 189.070312 179.972656 C 190.769531 178.925781 192.546875 178.398438 194.394531 178.398438 C 197.207031 178.398438 199.503906 179.269531 201.277344 181.015625 C 202.398438 182.105469 203.167969 183.613281 203.585938 185.523438 C 206.332031 184.703125 209.195312 184.363281 211.984375 184.601562 C 211.65625 182.320312 210.960938 180.367188 209.878906 178.765625 C 208.335938 176.460938 206.363281 174.78125 203.96875 173.714844 C 201.582031 172.65625 199.125 172.125 196.597656 172.125 Z M 207.089844 191.382812 C 206.039062 191.382812 204.996094 191.445312 203.957031 191.574219 L 203.957031 211.738281 L 212.203125 211.738281 L 212.203125 191.859375 C 210.484375 191.558594 208.777344 191.382812 207.089844 191.382812 Z M 207.089844 191.382812" fill="#ffffff"/><path fill-rule="nonzero" fill-opacity="1" d="M 225.574219 157.453125 L 225.574219 173.242188 L 218.015625 173.242188 L 218.015625 180.234375 L 225.574219 180.234375 L 225.574219 188.90625 C 228.292969 190.09375 230.980469 191.367188 233.683594 192.601562 L 233.683594 180.234375 L 243.570312 180.234375 L 243.570312 173.242188 L 233.683594 173.242188 L 233.683594 157.453125 Z M 225.574219 196.394531 L 225.574219 201.425781 C 225.574219 205.394531 226.578125 208.296875 228.589844 210.132812 C 230.609375 211.957031 233.117188 212.871094 236.117188 212.871094 C 237.832031 212.871094 239.328125 212.695312 240.613281 212.351562 C 241.898438 212.003906 242.945312 211.609375 243.753906 211.171875 C 244.566406 210.734375 245.066406 210.4375 245.25 210.285156 L 242.023438 204.285156 C 241.898438 204.4375 241.507812 204.738281 240.84375 205.175781 C 240.191406 205.613281 239.273438 205.832031 238.089844 205.832031 C 236.742188 205.832031 235.671875 205.304688 234.878906 204.238281 C 234.15625 203.28125 233.765625 201.828125 233.699219 199.886719 C 230.765625 198.738281 228.027344 197.496094 225.574219 196.394531 Z M 225.574219 196.394531" fill="#ffffff"/><path fill-rule="nonzero" fill-opacity="1" d="M 270.667969 172.125 C 270.082031 172.125 269.515625 172.15625 268.96875 172.210938 C 271.457031 174.070312 274.078125 175.746094 276.746094 177.351562 L 278.253906 174.28125 C 277.691406 173.816406 276.734375 173.339844 275.378906 172.859375 C 274.019531 172.371094 272.449219 172.125 270.667969 172.125 Z M 250.65625 173.242188 L 250.65625 211.738281 L 258.761719 211.738281 L 258.761719 190.546875 C 258.761719 189.015625 259.144531 187.355469 259.910156 185.558594 C 260.675781 183.765625 261.792969 182.222656 263.261719 180.9375 C 264.507812 179.847656 265.96875 179.222656 267.644531 179.058594 C 265.882812 177.671875 264.226562 176.183594 262.773438 174.585938 C 261.769531 175.289062 260.929688 176.050781 260.261719 176.867188 C 259.546875 177.738281 259.050781 178.5 258.761719 179.164062 L 258.761719 173.242188 Z M 250.65625 173.242188" fill="#ffffff"/><path fill-rule="nonzero" fill-opacity="1" d="M 298.460938 172.125 C 294.898438 172.125 291.671875 172.976562 288.773438 174.679688 C 286.226562 176.1875 284.140625 178.214844 282.515625 180.765625 C 284.839844 182.148438 287.136719 183.5625 289.355469 185.085938 C 290.5625 183.164062 292.097656 181.65625 293.976562 180.570312 C 295.9375 179.4375 298.023438 178.871094 300.25 178.871094 C 302.625 178.871094 304.75 179.445312 306.613281 180.585938 C 308.488281 181.730469 309.972656 183.324219 311.066406 185.375 C 312.167969 187.417969 312.71875 189.796875 312.71875 192.519531 C 312.71875 195.238281 312.167969 197.617188 311.066406 199.664062 C 309.972656 201.714844 308.488281 203.304688 306.613281 204.421875 C 304.75 205.546875 302.625 206.109375 300.25 206.109375 C 298.023438 206.109375 295.9375 205.558594 293.976562 204.457031 C 292.027344 203.347656 290.441406 201.773438 289.21875 199.742188 C 288.003906 197.703125 287.398438 195.296875 287.398438 192.519531 C 287.398438 192.433594 287.402344 192.351562 287.40625 192.265625 C 285.238281 190.492188 282.800781 188.847656 280.152344 187.277344 C 280.074219 187.226562 279.976562 187.171875 279.898438 187.125 C 279.527344 188.808594 279.335938 190.605469 279.335938 192.519531 C 279.335938 196.613281 280.183594 200.183594 281.890625 203.230469 C 283.59375 206.28125 285.886719 208.652344 288.773438 210.34375 C 291.671875 212.027344 294.898438 212.871094 298.460938 212.871094 C 301.277344 212.871094 303.722656 212.3125 305.804688 211.203125 C 307.886719 210.09375 309.523438 208.847656 310.714844 207.46875 C 311.917969 206.09375 312.648438 205.015625 312.902344 204.238281 L 312.902344 211.738281 L 320.875 211.738281 L 320.875 173.242188 L 312.8125 173.242188 L 312.8125 180.464844 C 312.585938 179.527344 311.855469 178.40625 310.625 177.097656 C 309.386719 175.78125 307.746094 174.625 305.695312 173.625 C 303.652344 172.625 301.246094 172.125 298.460938 172.125 Z M 298.460938 172.125" fill="#ffffff"/><path fill-rule="nonzero" fill-opacity="1" d="M 335.269531 149.34375 C 333.800781 149.34375 332.539062 149.875 331.492188 150.933594 C 330.4375 152 329.914062 153.261719 329.914062 154.730469 C 329.914062 156.199219 330.4375 157.460938 331.492188 158.507812 C 332.539062 159.550781 333.800781 160.070312 335.269531 160.070312 C 336.769531 160.070312 338.046875 159.550781 339.109375 158.507812 C 340.167969 157.460938 340.699219 156.199219 340.699219 154.730469 C 340.699219 153.730469 340.449219 152.832031 339.949219 152.035156 C 339.449219 151.242188 338.789062 150.59375 337.960938 150.09375 C 337.136719 149.59375 336.234375 149.34375 335.269531 149.34375 Z M 331.089844 173.242188 L 331.089844 199.035156 C 333.652344 196.5 336.503906 194.195312 339.246094 192.128906 L 339.246094 173.242188 Z M 339.246094 200.984375 C 336.378906 203.160156 333.613281 205.464844 331.089844 208.058594 L 331.089844 211.738281 L 339.246094 211.738281 Z M 339.246094 200.984375" fill="#ffffff"/><path fill-rule="nonzero" fill-opacity="1" d="M 350.402344 147.230469 L 350.402344 183.574219 C 353.871094 180.464844 356.6875 177.117188 358.601562 173.351562 L 358.601562 147.230469 Z M 358.601562 186.042969 C 356.046875 188.535156 353.269531 190.769531 350.402344 192.898438 L 350.402344 211.738281 L 358.601562 211.738281 Z M 358.601562 186.042969" fill="#ffffff"/></svg>